        <svg xmlns="http://www.w3.org/2000/svg" xmlns:xlink="http://www.w3.org/1999/xlink" version="1.1" width="3171.4285714285716" 
        height="1903.622118883996" viewBox="0 0 3171.4285714285716 1903.622118883996">
			
			<g transform="scale(8.57142857142857) translate(10, 10)">
				<defs id="SvgjsDefs2472"></defs><g id="SvgjsG2473" featureKey="pxMwYC-0" transform="matrix(2.2258771929824563,0,0,2.2258771929824563,90.19298033337844,-31.161418860418756)" fill="#46cdcf"><path xmlns="http://www.w3.org/2000/svg" d="M67.63,18.22c-.23-.19-.54-.26-.84-.2l-18.7,3.94-19.72-7.89c-.18-.07-.38-.09-.58-.05l-19,4c-.46,.1-.79,.51-.79,.98V57c0,.3,.14,.59,.37,.78,.23,.19,.54,.27,.84,.2l18.7-3.94,19.72,7.89c.12,.05,.25,.07,.37,.07,.07,0,.14,0,.21-.02l19-4c.46-.1,.79-.51,.79-.98V19c0-.3-.14-.59-.37-.78Zm-22.22,14.48c.12,.45,.52,.75,.97,.75,.08,0,.17-.01,.25-.03,.12-.03,.25-.05,.37-.08v26.18l-18-7.2v-7.61c.28-.06,.57-.12,.85-.19,.54-.14,.86-.68,.72-1.22-.14-.53-.68-.86-1.22-.72-.12,.03-.23,.05-.35,.08V16.48l18,7.2v7.61c-.29,.06-.58,.12-.87,.19-.53,.14-.86,.68-.72,1.22ZM10,19.81l17-3.58v26.74c-.43,.04-.85,.06-1.28,.06h-.16c-.54,.04-1.01,.43-1.02,.98,0,.55,.43,1.01,.98,1.02h.2c.43,0,.85-.02,1.27-.05v7.2l-17,3.58V19.81Zm56,36.38l-17,3.58v-26.74c.42-.04,.85-.06,1.27-.06h.17c.55,0,1-.44,1-.99,0-.55-.44-1-.99-1.01h-.17c-.43,0-.85,.02-1.27,.05v-7.2l17-3.58V56.19Z"></path><path xmlns="http://www.w3.org/2000/svg" d="M13.65,37.24c-.42-.36-1.05-.32-1.41,.1-.36,.42-.32,1.05,.1,1.41l1.51,1.31c.19,.16,.42,.24,.65,.24,.28,0,.56-.12,.76-.35,.36-.42,.32-1.05-.1-1.41l-1.51-1.31Z"></path><path xmlns="http://www.w3.org/2000/svg" d="M42.1,33.12c-1.26,.72-2.43,1.61-3.46,2.64-.39,.39-.39,1.02,0,1.41,.2,.2,.45,.29,.71,.29s.51-.1,.71-.29c.91-.91,1.93-1.69,3.04-2.32,.48-.27,.65-.88,.37-1.36-.27-.48-.89-.65-1.36-.37Z"></path><path xmlns="http://www.w3.org/2000/svg" d="M35.94,38.84c-.91,.9-1.93,1.68-3.04,2.31-.48,.27-.65,.88-.38,1.36,.18,.32,.52,.51,.87,.51,.17,0,.34-.04,.49-.13,1.27-.72,2.43-1.61,3.46-2.64,.39-.39,.39-1.02,0-1.41-.39-.39-1.02-.39-1.41,0Z"></path><path xmlns="http://www.w3.org/2000/svg" d="M54.21,33.51c1.23,.35,2.41,.86,3.51,1.52,.16,.1,.34,.14,.52,.14,.34,0,.67-.17,.86-.48,.29-.47,.13-1.09-.34-1.37-1.25-.75-2.59-1.34-3.99-1.73-.53-.15-1.08,.16-1.23,.69-.15,.53,.16,1.08,.69,1.23Z"></path><path xmlns="http://www.w3.org/2000/svg" d="M21.77,42.49c-1.23-.35-2.41-.86-3.5-1.52-.47-.29-1.09-.13-1.37,.34-.29,.47-.13,1.09,.34,1.37,1.25,.75,2.59,1.34,3.99,1.74,.09,.03,.18,.04,.27,.04,.44,0,.84-.29,.96-.73,.15-.53-.16-1.08-.69-1.24Z"></path><path xmlns="http://www.w3.org/2000/svg" d="M62.35,38.76c.19,.16,.42,.24,.65,.24,.28,0,.56-.12,.76-.35,.36-.42,.32-1.05-.1-1.41l-1.51-1.31c-.42-.36-1.05-.32-1.41,.1-.36,.42-.32,1.05,.1,1.41l1.51,1.31Z"></path></g>
			</g>
		</svg>